<svg width="150" height="150" viewBox="0 0 150 150" fill="none" xmlns="http://www.w3.org/2000/svg">
<g clip-path="url(#clip0_1225_9205)">
<mask id="mask0_1225_9205" style="mask-type:alpha" maskUnits="userSpaceOnUse" x="0" y="0" width="150" height="150">
<circle cx="75" cy="75" r="75" fill="#1A202C"/>
</mask>
<g mask="url(#mask0_1225_9205)">
<circle cx="75" cy="75" r="75" fill="#1A202C"/>
<g filter="url(#filter0_f_1225_9205)">
<ellipse cx="150" cy="18.5" rx="89" ry="79.5" fill="#DD6B20" fill-opacity="0.5"/>
</g>
</g>
<path d="M55.5511 101V48.6364H76.517C80.3693 48.6364 83.5824 49.2074 86.1562 50.3494C88.7301 51.4915 90.6648 53.0767 91.9602 55.1051C93.2557 57.1165 93.9034 59.4347 93.9034 62.0597C93.9034 64.1051 93.4943 65.9034 92.6761 67.4545C91.858 68.9886 90.733 70.25 89.3011 71.2386C87.8864 72.2102 86.267 72.9006 84.4432 73.3097V73.821C86.4375 73.9062 88.304 74.4687 90.0426 75.5085C91.7983 76.5483 93.2216 78.0057 94.3125 79.8807C95.4034 81.7386 95.9489 83.9545 95.9489 86.5284C95.9489 89.3068 95.2585 91.7869 93.8778 93.9688C92.5142 96.1335 90.4943 97.8466 87.8182 99.108C85.142 100.369 81.8438 101 77.9233 101H55.5511ZM66.6222 91.9489H75.6477C78.733 91.9489 80.983 91.3608 82.3977 90.1847C83.8125 88.9915 84.5199 87.4062 84.5199 85.429C84.5199 83.9801 84.1705 82.7017 83.4716 81.5938C82.7727 80.4858 81.7756 79.6165 80.4801 78.9858C79.2017 78.3551 77.6761 78.0398 75.9034 78.0398H66.6222V91.9489ZM66.6222 70.5483H74.8295C76.3466 70.5483 77.6932 70.2841 78.8693 69.7557C80.0625 69.2102 81 68.4432 81.6818 67.4545C82.3807 66.4659 82.7301 65.2812 82.7301 63.9006C82.7301 62.0085 82.0568 60.483 80.7102 59.3239C79.3807 58.1648 77.4886 57.5852 75.0341 57.5852H66.6222V70.5483Z" fill="white"/>
</g>
<defs>
<filter id="filter0_f_1225_9205" x="-35" y="-157" width="370" height="351" filterUnits="userSpaceOnUse" color-interpolation-filters="sRGB">
<feFlood flood-opacity="0" result="BackgroundImageFix"/>
<feBlend mode="normal" in="SourceGraphic" in2="BackgroundImageFix" result="shape"/>
<feGaussianBlur stdDeviation="48" result="effect1_foregroundBlur_1225_9205"/>
</filter>
<clipPath id="clip0_1225_9205">
<rect width="150" height="150" fill="white"/>
</clipPath>
</defs>
</svg>
